<svg width="24" height="24" viewBox="0 0 24 24" fill="none" xmlns="http://www.w3.org/2000/svg">
<path d="M0 10C0 5.28595 0 2.92893 1.46447 1.46447C2.92893 0 5.28595 0 10 0L14 0C18.714 0 21.0711 0 22.5355 1.46447C24 2.92893 24 5.28595 24 10V14C24 18.714 24 21.0711 22.5355 22.5355C21.0711 24 18.714 24 14 24H10C5.28595 24 2.92893 24 1.46447 22.5355C0 21.0711 0 18.714 0 14L0 10Z" fill="#F1F1F1"/>
<path d="M19.0833 13.2249L17.8333 16.9833C16.7917 20.1166 15.125 20.9499 11.9917 19.9083L8.23337 18.6583C6.3417 18.0333 5.2917 17.1666 4.9917 15.8999C5.62503 16.3499 6.4917 16.6499 7.6167 16.8249L11.525 17.4416C14.7833 17.9499 16.2917 16.8499 16.8083 13.5916L17.4167 9.68325C17.5167 9.04159 17.5583 8.46659 17.525 7.95825C19.5167 9.01659 19.95 10.6166 19.0833 13.2249Z" stroke="#808487" stroke-linecap="round" stroke-linejoin="round"/>
<path d="M13.5748 4.3999C16.1915 4.80824 17.4165 5.8749 17.5248 7.95824C17.5582 8.46657 17.5165 9.04157 17.4165 9.68324L16.8082 13.5916C16.2915 16.8499 14.7832 17.9499 11.5248 17.4416L7.6165 16.8249C6.4915 16.6499 5.62483 16.3499 4.9915 15.8999C3.78316 15.0582 3.43316 13.6749 3.7665 11.5416L4.38316 7.63324C4.89983 4.3749 6.40816 3.2749 9.6665 3.78324" stroke="#808487" stroke-linecap="round" stroke-linejoin="round"/>
<path d="M8.8665 9.48334C9.66732 9.48334 10.3165 8.83416 10.3165 8.03334C10.3165 7.23253 9.66732 6.58334 8.8665 6.58334C8.06569 6.58334 7.4165 7.23253 7.4165 8.03334C7.4165 8.83416 8.06569 9.48334 8.8665 9.48334Z" stroke="#808487" stroke-linecap="round" stroke-linejoin="round"/>
</svg>
