<svg width="36" height="36" viewBox="0 0 36 36" fill="none" xmlns="http://www.w3.org/2000/svg">
<path d="M0 10C0 4.47715 4.47715 0 10 0H26C31.5228 0 36 4.47715 36 10V26C36 31.5228 31.5228 36 26 36H10C4.47715 36 0 31.5228 0 26V10Z" fill="#F1F1F1"/>
<path d="M11.1909 12.3799C11.0009 12.3799 10.8009 12.2999 10.6609 12.1599C10.3709 11.8699 10.3709 11.3899 10.6609 11.0999L14.2909 7.46994C14.5809 7.17994 15.0609 7.17994 15.3509 7.46994C15.6409 7.75994 15.6409 8.23994 15.3509 8.52994L11.7209 12.1599C11.5709 12.2999 11.3809 12.3799 11.1909 12.3799Z" fill="#808487"/>
<path d="M24.8091 12.3799C24.6191 12.3799 24.4291 12.3099 24.2791 12.1599L20.6491 8.52994C20.3591 8.23994 20.3591 7.75994 20.6491 7.46994C20.9391 7.17994 21.4191 7.17994 21.7091 7.46994L25.3391 11.0999C25.6291 11.3899 25.6291 11.8699 25.3391 12.1599C25.1991 12.2999 24.9991 12.3799 24.8091 12.3799Z" fill="#808487"/>
<path d="M26.21 16.6001C26.14 16.6001 26.07 16.6001 26 16.6001H25.77H10C9.3 16.6101 8.5 16.6101 7.92 16.0301C7.46 15.5801 7.25 14.8801 7.25 13.8501C7.25 11.1001 9.26 11.1001 10.22 11.1001H25.78C26.74 11.1001 28.75 11.1001 28.75 13.8501C28.75 14.8901 28.54 15.5801 28.08 16.0301C27.56 16.5501 26.86 16.6001 26.21 16.6001ZM10.22 15.1001H26.01C26.46 15.1101 26.88 15.1101 27.02 14.9701C27.09 14.9001 27.24 14.6601 27.24 13.8501C27.24 12.7201 26.96 12.6001 25.77 12.6001H10.22C9.03 12.6001 8.75 12.7201 8.75 13.8501C8.75 14.6601 8.91 14.9001 8.97 14.9701C9.11 15.1001 9.54 15.1001 9.98 15.1001H10.22Z" fill="#808487"/>
<path d="M15.7598 24.3C15.3498 24.3 15.0098 23.96 15.0098 23.55V20C15.0098 19.59 15.3498 19.25 15.7598 19.25C16.1698 19.25 16.5098 19.59 16.5098 20V23.55C16.5098 23.97 16.1698 24.3 15.7598 24.3Z" fill="#808487"/>
<path d="M20.3594 24.3C19.9494 24.3 19.6094 23.96 19.6094 23.55V20C19.6094 19.59 19.9494 19.25 20.3594 19.25C20.7694 19.25 21.1094 19.59 21.1094 20V23.55C21.1094 23.97 20.7694 24.3 20.3594 24.3Z" fill="#808487"/>
<path d="M20.8907 28.7502H14.8607C11.2807 28.7502 10.4807 26.6202 10.1707 24.7702L8.76073 16.1202C8.69073 15.7102 8.97073 15.3302 9.38073 15.2602C9.79073 15.1902 10.1707 15.4702 10.2407 15.8802L11.6507 24.5202C11.9407 26.2902 12.5407 27.2502 14.8607 27.2502H20.8907C23.4607 27.2502 23.7507 26.3502 24.0807 24.6102L25.7607 15.8602C25.8407 15.4502 26.2307 15.1802 26.6407 15.2702C27.0507 15.3502 27.3107 15.7402 27.2307 16.1502L25.5507 24.9002C25.1607 26.9302 24.5107 28.7502 20.8907 28.7502Z" fill="#808487"/>
</svg>
