<svg width="44" height="44" viewBox="0 0 44 44" fill="none" xmlns="http://www.w3.org/2000/svg">
<path d="M0.5 10C0.5 4.7533 4.7533 0.5 10 0.5H34C39.2467 0.5 43.5 4.7533 43.5 10V34C43.5 39.2467 39.2467 43.5 34 43.5H10C4.7533 43.5 0.5 39.2467 0.5 34V10Z" fill="white" stroke="#197C82"/>
<path d="M15.1909 16.3799C15.0009 16.3799 14.8009 16.2999 14.6609 16.1599C14.3709 15.8699 14.3709 15.3899 14.6609 15.0999L18.2909 11.4699C18.5809 11.1799 19.0609 11.1799 19.3509 11.4699C19.6409 11.7599 19.6409 12.2399 19.3509 12.5299L15.7209 16.1599C15.5709 16.2999 15.3809 16.3799 15.1909 16.3799Z" fill="#197C82"/>
<path d="M28.8091 16.3799C28.6191 16.3799 28.4291 16.3099 28.2791 16.1599L24.6491 12.5299C24.3591 12.2399 24.3591 11.7599 24.6491 11.4699C24.9391 11.1799 25.4191 11.1799 25.7091 11.4699L29.3391 15.0999C29.6291 15.3899 29.6291 15.8699 29.3391 16.1599C29.1991 16.2999 28.9991 16.3799 28.8091 16.3799Z" fill="#197C82"/>
<path d="M30.21 20.6001C30.14 20.6001 30.07 20.6001 30 20.6001H29.77H14C13.3 20.6101 12.5 20.6101 11.92 20.0301C11.46 19.5801 11.25 18.8801 11.25 17.8501C11.25 15.1001 13.26 15.1001 14.22 15.1001H29.78C30.74 15.1001 32.75 15.1001 32.75 17.8501C32.75 18.8901 32.54 19.5801 32.08 20.0301C31.56 20.5501 30.86 20.6001 30.21 20.6001ZM14.22 19.1001H30.01C30.46 19.1101 30.88 19.1101 31.02 18.9701C31.09 18.9001 31.24 18.6601 31.24 17.8501C31.24 16.7201 30.96 16.6001 29.77 16.6001H14.22C13.03 16.6001 12.75 16.7201 12.75 17.8501C12.75 18.6601 12.91 18.9001 12.97 18.9701C13.11 19.1001 13.54 19.1001 13.98 19.1001H14.22Z" fill="#197C82"/>
<path d="M19.7598 28.3C19.3498 28.3 19.0098 27.96 19.0098 27.55V24C19.0098 23.59 19.3498 23.25 19.7598 23.25C20.1698 23.25 20.5098 23.59 20.5098 24V27.55C20.5098 27.97 20.1698 28.3 19.7598 28.3Z" fill="#197C82"/>
<path d="M24.3594 28.3C23.9494 28.3 23.6094 27.96 23.6094 27.55V24C23.6094 23.59 23.9494 23.25 24.3594 23.25C24.7694 23.25 25.1094 23.59 25.1094 24V27.55C25.1094 27.97 24.7694 28.3 24.3594 28.3Z" fill="#197C82"/>
<path d="M24.8907 32.75H18.8607C15.2807 32.75 14.4807 30.62 14.1707 28.77L12.7607 20.12C12.6907 19.71 12.9707 19.33 13.3807 19.26C13.7907 19.19 14.1707 19.47 14.2407 19.88L15.6507 28.52C15.9407 30.29 16.5407 31.25 18.8607 31.25H24.8907C27.4607 31.25 27.7507 30.35 28.0807 28.61L29.7607 19.86C29.8407 19.45 30.2307 19.18 30.6407 19.27C31.0507 19.35 31.3107 19.74 31.2307 20.15L29.5507 28.9C29.1607 30.93 28.5107 32.75 24.8907 32.75Z" fill="#197C82"/>
</svg>
