<svg width="16" height="16" viewBox="0 0 16 16" fill="none" xmlns="http://www.w3.org/2000/svg">
<g clip-path="url(#clip0_1394_3317)">
<path d="M11.352 0H4.648C1.736 0 0 1.736 0 4.648V11.344C0 14.264 1.736 16 4.648 16H11.344C14.256 16 15.992 14.264 15.992 11.352V4.648C16 1.736 14.264 0 11.352 0ZM11.824 6.16L7.288 10.696C7.176 10.808 7.024 10.872 6.864 10.872C6.704 10.872 6.552 10.808 6.44 10.696L4.176 8.432C3.944 8.2 3.944 7.816 4.176 7.584C4.408 7.352 4.792 7.352 5.024 7.584L6.864 9.424L10.976 5.312C11.208 5.08 11.592 5.08 11.824 5.312C12.056 5.544 12.056 5.92 11.824 6.16Z" fill="#24A4AC"/>
</g>
<defs>
<clipPath id="clip0_1394_3317">
<rect width="16" height="16" fill="white"/>
</clipPath>
</defs>
</svg>
