<svg width="24" height="24" viewBox="0 0 24 24" fill="none" xmlns="http://www.w3.org/2000/svg">
<path d="M0 10C0 5.28595 0 2.92893 1.46447 1.46447C2.92893 0 5.28595 0 10 0L14 0C18.714 0 21.0711 0 22.5355 1.46447C24 2.92893 24 5.28595 24 10V14C24 18.714 24 21.0711 22.5355 22.5355C21.0711 24 18.714 24 14 24H10C5.28595 24 2.92893 24 1.46447 22.5355C0 21.0711 0 18.714 0 14L0 10Z" fill="#F1F1F1"/>
<path d="M18.6668 8.66666C18.6668 6.99999 18.6668 6.16666 16.1668 6.16666H15.3335" stroke="#808487" stroke-linecap="round" stroke-linejoin="round"/>
<path d="M10.3335 15.3333C10.3335 13.9499 10.3335 12.8333 12.8335 12.8333H16.1668C17.8585 12.8333 18.4002 12.4499 18.5835 11.6916" stroke="#808487" stroke-linecap="round" stroke-linejoin="round"/>
<path d="M11.9993 3.66666H8.66602C8.12435 5.29166 8.12435 7.04166 8.66602 8.66666H11.9993C12.541 7.04166 12.541 5.29166 11.9993 3.66666Z" stroke="#808487" stroke-linecap="round" stroke-linejoin="round"/>
<path d="M8.66683 3.66666H7.8335C6.16683 3.66666 5.3335 4.49999 5.3335 6.16666C5.3335 7.83332 6.16683 8.66666 7.8335 8.66666H8.66683C7.8335 6.99999 7.8335 5.33332 8.66683 3.66666Z" stroke="#808487" stroke-linecap="round" stroke-linejoin="round"/>
<path d="M12.8333 3.66666H12C12.8333 5.33332 12.8333 6.99999 12 8.66666H12.8333C14.5 8.66666 15.3333 7.83332 15.3333 6.16666C15.3333 4.49999 14.5 3.66666 12.8333 3.66666Z" stroke="#808487" stroke-linecap="round" stroke-linejoin="round"/>
<path d="M9.9165 20.3333H10.7498C11.9998 20.3333 11.9998 19.5 11.9998 19.0833V16.5833C11.9998 16.1667 11.9998 15.3333 10.7498 15.3333H9.9165C8.6665 15.3333 8.6665 16.1667 8.6665 16.5833V19.0833C8.6665 19.5 8.6665 20.3333 9.9165 20.3333Z" stroke="#808487" stroke-linecap="round" stroke-linejoin="round"/>
</svg>
