<svg width="20" height="20" viewBox="0 0 20 20" fill="none" xmlns="http://www.w3.org/2000/svg">
<path d="M1.6665 18.3333H18.3332" stroke="#197C82" stroke-miterlimit="10" stroke-linecap="round" stroke-linejoin="round"/>
<path d="M15.8338 5.83333L15.8088 3.33333H12.1421" stroke="#197C82" stroke-miterlimit="10" stroke-linecap="round" stroke-linejoin="round"/>
<path d="M2.5 8.30832C2.5 7.79999 2.74167 7.31669 3.14167 7.00003L8.975 2.45835C9.575 1.99169 10.4167 1.99169 11.025 2.45835L16.8583 6.99169C17.2667 7.30835 17.5 7.79165 17.5 8.30832V18.3333" stroke="#197C82" stroke-miterlimit="10" stroke-linecap="round" stroke-linejoin="round"/>
<path d="M2.45752 18.3333L2.48252 11.6917" stroke="#197C82" stroke-miterlimit="10" stroke-linecap="round" stroke-linejoin="round"/>
<path d="M10.8332 14.1667H9.1665C8.47484 14.1667 7.9165 14.725 7.9165 15.4167V18.3333H12.0832V15.4167C12.0832 14.725 11.5248 14.1667 10.8332 14.1667Z" stroke="#197C82" stroke-miterlimit="10" stroke-linejoin="round"/>
<path d="M7.9165 11.4583H6.24984C5.7915 11.4583 5.4165 11.0833 5.4165 10.625V9.37501C5.4165 8.91667 5.7915 8.54167 6.24984 8.54167H7.9165C8.37484 8.54167 8.74984 8.91667 8.74984 9.37501V10.625C8.74984 11.0833 8.37484 11.4583 7.9165 11.4583Z" stroke="#197C82" stroke-miterlimit="10" stroke-linejoin="round"/>
<path d="M13.75 11.4583H12.0833C11.625 11.4583 11.25 11.0833 11.25 10.625V9.37501C11.25 8.91667 11.625 8.54167 12.0833 8.54167H13.75C14.2083 8.54167 14.5833 8.91667 14.5833 9.37501V10.625C14.5833 11.0833 14.2083 11.4583 13.75 11.4583Z" stroke="#197C82" stroke-miterlimit="10" stroke-linejoin="round"/>
</svg>
