<svg width="24" height="24" viewBox="0 0 24 24" fill="none" xmlns="http://www.w3.org/2000/svg">
<path d="M0 10C0 5.28595 0 2.92893 1.46447 1.46447C2.92893 0 5.28595 0 10 0L14 0C18.714 0 21.0711 0 22.5355 1.46447C24 2.92893 24 5.28595 24 10V14C24 18.714 24 21.0711 22.5355 22.5355C21.0711 24 18.714 24 14 24H10C5.28595 24 2.92893 24 1.46447 22.5355C0 21.0711 0 18.714 0 14L0 10Z" fill="#F1F1F1"/>
<path d="M13.6668 12.8333V13.6667C13.6668 13.675 13.6668 13.675 13.6668 13.6833C13.6668 14.5917 13.6585 15.3333 12.0002 15.3333C10.3502 15.3333 10.3335 14.6 10.3335 13.6917V12.8333C10.3335 12 10.3335 12 11.1668 12H12.8335C13.6668 12 13.6668 12 13.6668 12.8333Z" stroke="#808487" stroke-miterlimit="10" stroke-linecap="round" stroke-linejoin="round"/>
<path d="M20.0415 11.1667C18.1165 12.5667 15.9165 13.4 13.6665 13.6833" stroke="#808487" stroke-miterlimit="10" stroke-linecap="round" stroke-linejoin="round"/>
<path d="M4.18262 11.3917C6.05762 12.675 8.17428 13.45 10.3326 13.6917" stroke="#808487" stroke-miterlimit="10" stroke-linecap="round" stroke-linejoin="round"/>
<path d="M19.809 13.6667L20.0923 10.6917C20.309 8.65833 19.7257 7 16.1673 7H7.834C4.27567 7 3.69234 8.65833 3.91734 10.6917L4.54234 17.3583C4.71734 18.9917 5.31734 20.3333 8.66734 20.3333H15.334C18.684 20.3333 19.284 18.9917 19.459 17.3583" stroke="#808487" stroke-miterlimit="10" stroke-linecap="round" stroke-linejoin="round"/>
<path d="M8.6665 6.99999V6.33332C8.6665 4.85832 8.6665 3.66666 11.3332 3.66666H12.6665C15.3332 3.66666 15.3332 4.85832 15.3332 6.33332V6.99999" stroke="#808487" stroke-miterlimit="10" stroke-linecap="round" stroke-linejoin="round"/>
</svg>
