<svg width="20" height="20" viewBox="0 0 20 20" fill="none" xmlns="http://www.w3.org/2000/svg">
<g id="setting-4 1">
<path id="Vector" d="M18.3335 5.4165H13.3335" stroke="#197C82" stroke-width="1.5" stroke-miterlimit="10" stroke-linecap="round" stroke-linejoin="round"/>
<path id="Vector_2" d="M4.99984 5.4165H1.6665" stroke="#197C82" stroke-width="1.5" stroke-miterlimit="10" stroke-linecap="round" stroke-linejoin="round"/>
<path id="Vector_3" d="M11.2498 5.41667C11.2498 7.025 9.9415 8.33333 8.33317 8.33333C6.72484 8.33333 5.4165 7.025 5.4165 5.41667C5.4165 3.80833 6.72484 2.5 8.33317 2.5C8.6165 2.5 8.8915 2.54167 9.14984 2.61667" stroke="#197C82" stroke-width="1.5" stroke-miterlimit="10" stroke-linecap="round" stroke-linejoin="round"/>
<path id="Vector_4" d="M18.3333 14.5835H15" stroke="#197C82" stroke-width="1.5" stroke-miterlimit="10" stroke-linecap="round" stroke-linejoin="round"/>
<path id="Vector_5" d="M6.6665 14.5835H1.6665" stroke="#197C82" stroke-width="1.5" stroke-miterlimit="10" stroke-linecap="round" stroke-linejoin="round"/>
<path id="Vector_6" d="M11.6667 17.4998C13.2775 17.4998 14.5833 16.194 14.5833 14.5832C14.5833 12.9723 13.2775 11.6665 11.6667 11.6665C10.0558 11.6665 8.75 12.9723 8.75 14.5832C8.75 16.194 10.0558 17.4998 11.6667 17.4998Z" stroke="#197C82" stroke-width="1.5" stroke-miterlimit="10" stroke-linecap="round" stroke-linejoin="round"/>
</g>
</svg>
