<svg width="30" height="30" viewBox="0 0 30 30" fill="none" xmlns="http://www.w3.org/2000/svg">
<g id="iCon24">
<g id="vector">
<path d="M5 6.875C5 5.83947 5.83947 5 6.875 5H23.125C24.1605 5 25 5.83947 25 6.875C25 7.91053 24.1605 8.75 23.125 8.75H6.875C5.83947 8.75 5 7.91053 5 6.875Z" stroke="#808487" stroke-width="1.5" stroke-linecap="round" stroke-linejoin="round"/>
<path d="M5 15C5 13.9645 5.83947 13.125 6.875 13.125H23.125C24.1605 13.125 25 13.9645 25 15C25 16.0355 24.1605 16.875 23.125 16.875H6.875C5.83947 16.875 5 16.0355 5 15Z" stroke="#808487" stroke-width="1.5" stroke-linecap="round" stroke-linejoin="round"/>
<path d="M5 23.125C5 22.0895 5.83947 21.25 6.875 21.25H23.125C24.1605 21.25 25 22.0895 25 23.125C25 24.1605 24.1605 25 23.125 25H6.875C5.83947 25 5 24.1605 5 23.125Z" stroke="#808487" stroke-width="1.5" stroke-linecap="round" stroke-linejoin="round"/>
</g>
</g>
</svg>
