<svg width="44" height="44" viewBox="0 0 44 44" fill="none" xmlns="http://www.w3.org/2000/svg">
<rect width="44" height="44" rx="10" fill="#F1F1F1"/>
<path d="M12 13.875C12 12.8395 12.8395 12 13.875 12H30.125C31.1605 12 32 12.8395 32 13.875C32 14.9105 31.1605 15.75 30.125 15.75H13.875C12.8395 15.75 12 14.9105 12 13.875Z" stroke="#808487" stroke-width="1.5" stroke-linecap="round" stroke-linejoin="round"/>
<path d="M12 22C12 20.9645 12.8395 20.125 13.875 20.125H30.125C31.1605 20.125 32 20.9645 32 22C32 23.0355 31.1605 23.875 30.125 23.875H13.875C12.8395 23.875 12 23.0355 12 22Z" stroke="#808487" stroke-width="1.5" stroke-linecap="round" stroke-linejoin="round"/>
<path d="M12 30.125C12 29.0895 12.8395 28.25 13.875 28.25H30.125C31.1605 28.25 32 29.0895 32 30.125C32 31.1605 31.1605 32 30.125 32H13.875C12.8395 32 12 31.1605 12 30.125Z" stroke="#808487" stroke-width="1.5" stroke-linecap="round" stroke-linejoin="round"/>
</svg>
