<svg width="20" height="20" viewBox="0 0 20 20" fill="none" xmlns="http://www.w3.org/2000/svg">
<path d="M1.6665 7.08335C1.6665 4.16669 3.33317 2.91669 5.83317 2.91669H14.1665C16.6665 2.91669 18.3332 4.16669 18.3332 7.08335V12.9167C18.3332 15.8334 16.6665 17.0834 14.1665 17.0834H5.83317C3.33317 17.0834 1.6665 15.8334 1.6665 12.9167V10.4417" stroke="#808487" stroke-miterlimit="10" stroke-linecap="round" stroke-linejoin="round"/>
<path d="M12.5 10C12.5 8.61667 11.3833 7.5 10 7.5C8.61667 7.5 7.5 8.61667 7.5 10C7.5 11.3833 8.61667 12.5 10 12.5" stroke="#808487" stroke-miterlimit="10" stroke-linecap="round" stroke-linejoin="round"/>
<path d="M7.08333 5H5.83333C4.68333 5 3.75 5.93333 3.75 7.08333V8.33333" stroke="#808487" stroke-miterlimit="10" stroke-linecap="round" stroke-linejoin="round"/>
<path d="M12.9165 5H14.1665C15.3165 5 16.2498 5.93333 16.2498 7.08333V8.33333" stroke="#808487" stroke-miterlimit="10" stroke-linecap="round" stroke-linejoin="round"/>
<path d="M7.08333 15H5.83333C4.68333 15 3.75 14.0667 3.75 12.9167V11.6667" stroke="#808487" stroke-miterlimit="10" stroke-linecap="round" stroke-linejoin="round"/>
<path d="M12.9165 15H14.1665C15.3165 15 16.2498 14.0667 16.2498 12.9167V11.6667" stroke="#808487" stroke-miterlimit="10" stroke-linecap="round" stroke-linejoin="round"/>
</svg>
