<svg width="25" height="24" viewBox="0 0 25 24" fill="none" xmlns="http://www.w3.org/2000/svg">
<g id="note-21 1">
<path id="Vector" d="M13.1761 19.9589C13.4508 20.0228 13.476 20.3827 13.2084 20.4719L11.6284 20.9919C7.65839 22.2719 5.56839 21.2019 4.27839 17.2319L2.99839 13.2819C1.71839 9.31191 2.77839 7.21191 6.74839 5.93191L7.27238 5.75838C7.67525 5.62497 8.06731 6.02903 7.95292 6.4377C7.89622 6.64027 7.84167 6.85168 7.78839 7.07192L6.80839 11.2619C5.70839 15.9719 7.31839 18.5719 12.0284 19.6919L13.1761 19.9589Z" fill="#808487"/>
<path id="Vector_2" d="M17.6702 3.20854L16.0002 2.81854C12.6602 2.02854 10.6702 2.67854 9.50018 5.09854C9.20018 5.70854 8.96018 6.44854 8.76018 7.29854L7.78018 11.4885C6.80018 15.6685 8.09018 17.7285 12.2602 18.7185L13.9402 19.1185C14.5202 19.2585 15.0602 19.3485 15.5602 19.3885C18.6802 19.6885 20.3402 18.2285 21.1802 14.6185L22.1602 10.4385C23.1402 6.25854 21.8602 4.18854 17.6702 3.20854ZM15.7902 13.3285C15.7002 13.6685 15.4002 13.8885 15.0602 13.8885C15.0002 13.8885 14.9402 13.8785 14.8702 13.8685L11.9602 13.1285C11.5602 13.0285 11.3202 12.6185 11.4202 12.2185C11.5202 11.8185 11.9302 11.5785 12.3302 11.6785L15.2402 12.4185C15.6502 12.5185 15.8902 12.9285 15.7902 13.3285ZM18.7202 9.94854C18.6302 10.2885 18.3302 10.5085 17.9902 10.5085C17.9302 10.5085 17.8702 10.4985 17.8002 10.4885L12.9502 9.25854C12.5502 9.15854 12.3102 8.74854 12.4102 8.34854C12.5102 7.94854 12.9202 7.70854 13.3202 7.80854L18.1702 9.03854C18.5802 9.12854 18.8202 9.53854 18.7202 9.94854Z" fill="#808487"/>
</g>
</svg>
