<svg width="24" height="24" viewBox="0 0 24 24" fill="none" xmlns="http://www.w3.org/2000/svg">
<path d="M11.5609 11.62C11.5309 11.62 11.5109 11.62 11.4809 11.62C11.4309 11.61 11.3609 11.61 11.3009 11.62C8.40094 11.53 6.21094 9.25 6.21094 6.44C6.21094 3.58 8.54094 1.25 11.4009 1.25C14.2609 1.25 16.5909 3.58 16.5909 6.44C16.5809 9.25 14.3809 11.53 11.5909 11.62C11.5809 11.62 11.5709 11.62 11.5609 11.62ZM11.4009 2.75C9.37094 2.75 7.71094 4.41 7.71094 6.44C7.71094 8.44 9.27094 10.05 11.2609 10.12C11.3209 10.11 11.4509 10.11 11.5809 10.12C13.5409 10.03 15.0809 8.42 15.0909 6.44C15.0909 4.41 13.4309 2.75 11.4009 2.75Z" fill="white"/>
<path d="M11.57 22.55C9.61 22.55 7.64 22.05 6.15 21.05C4.76 20.13 4 18.87 4 17.5C4 16.13 4.76 14.86 6.15 13.93C9.15 11.94 14.01 11.94 16.99 13.93C18.37 14.85 19.14 16.11 19.14 17.48C19.14 18.85 18.38 20.12 16.99 21.05C15.49 22.05 13.53 22.55 11.57 22.55ZM6.98 15.19C6.02 15.83 5.5 16.65 5.5 17.51C5.5 18.36 6.03 19.18 6.98 19.81C9.47 21.48 13.67 21.48 16.16 19.81C17.12 19.17 17.64 18.35 17.64 17.49C17.64 16.64 17.11 15.82 16.16 15.19C13.67 13.53 9.47 13.53 6.98 15.19Z" fill="white"/>
</svg>
