<svg width="30" height="30" viewBox="0 0 30 30" fill="none" xmlns="http://www.w3.org/2000/svg">
<path d="M0 5C0 2.23858 2.23858 0 5 0H25C27.7614 0 30 2.23858 30 5V25C30 27.7614 27.7614 30 25 30H5C2.23858 30 0 27.7614 0 25V5Z" fill="#F1F1F1"/>
<path d="M14.5832 6.66667C18.9582 6.66667 22.4998 10.2083 22.4998 14.5833C22.4998 18.9583 18.9582 22.5 14.5832 22.5C10.2082 22.5 6.6665 18.9583 6.6665 14.5833C6.6665 11.5 8.42484 8.83333 10.9998 7.525" stroke="#808487" stroke-linecap="round" stroke-linejoin="round"/>
<path d="M23.3332 23.3333L21.6665 21.6667" stroke="#808487" stroke-linecap="round" stroke-linejoin="round"/>
</svg>
