<svg width="24" height="24" viewBox="0 0 24 24" fill="none" xmlns="http://www.w3.org/2000/svg">
<path d="M8 6.6077V3.39927C8 2.40282 7.54824 2 6.42588 2H3.57412C2.45176 2 2 2.40282 2 3.39927V6.60064C2 7.60416 2.45176 7.99991 3.57412 7.99991H6.42588C7.54824 8.00698 8 7.60416 8 6.6077Z" fill="#197C82"/>
<path d="M8 13.6077V10.3993C8 9.40282 7.54824 9 6.42588 9H3.57412C2.45176 9 2 9.40282 2 10.3993V13.6006C2 14.6042 2.45176 14.9999 3.57412 14.9999H6.42588C7.54824 15.007 8 14.6042 8 13.6077Z" fill="#197C82"/>
<path d="M8 20.6077V17.3993C8 16.4028 7.54824 16 6.42588 16H3.57412C2.45176 16 2 16.4028 2 17.3993V20.6006C2 21.6042 2.45176 21.9999 3.57412 21.9999H6.42588C7.54824 22.007 8 21.6042 8 20.6077Z" fill="#197C82"/>
<path d="M15 6.6077V3.39927C15 2.40282 14.5482 2 13.4259 2H10.5741C9.45176 2 9 2.40282 9 3.39927V6.60064C9 7.60416 9.45176 7.99991 10.5741 7.99991H13.4259C14.5482 8.00698 15 7.60416 15 6.6077Z" fill="#197C82"/>
<path d="M15 13.6077V10.3993C15 9.40282 14.5482 9 13.4259 9H10.5741C9.45176 9 9 9.40282 9 10.3993V13.6006C9 14.6042 9.45176 14.9999 10.5741 14.9999H13.4259C14.5482 15.007 15 14.6042 15 13.6077Z" fill="#197C82"/>
<path d="M15 20.6077V17.3993C15 16.4028 14.5482 16 13.4259 16H10.5741C9.45176 16 9 16.4028 9 17.3993V20.6006C9 21.6042 9.45176 21.9999 10.5741 21.9999H13.4259C14.5482 22.007 15 21.6042 15 20.6077Z" fill="#197C82"/>
<path d="M22 6.6077V3.39927C22 2.40282 21.5482 2 20.4259 2H17.5741C16.4518 2 16 2.40282 16 3.39927V6.60064C16 7.60416 16.4518 7.99991 17.5741 7.99991H20.4259C21.5482 8.00698 22 7.60416 22 6.6077Z" fill="#197C82"/>
<path d="M22 13.6077V10.3993C22 9.40282 21.5482 9 20.4259 9H17.5741C16.4518 9 16 9.40282 16 10.3993V13.6006C16 14.6042 16.4518 14.9999 17.5741 14.9999H20.4259C21.5482 15.007 22 14.6042 22 13.6077Z" fill="#197C82"/>
<path d="M22 20.6077V17.3993C22 16.4028 21.5482 16 20.4259 16H17.5741C16.4518 16 16 16.4028 16 17.3993V20.6006C16 21.6042 16.4518 21.9999 17.5741 21.9999H20.4259C21.5482 22.007 22 21.6042 22 20.6077Z" fill="#197C82"/>
</svg>
