<svg width="18" height="19" viewBox="0 0 18 19" fill="none" xmlns="http://www.w3.org/2000/svg">
<path d="M11.1747 4.50832C11.0247 4.71666 10.9163 4.90832 10.8413 5.09166C10.7663 5.26666 10.7247 5.44166 10.7247 5.59999C10.7247 5.79999 10.783 5.99999 10.8997 6.19166C11.008 6.38332 11.1663 6.58332 11.3663 6.78332L11.9997 7.44166C12.0913 7.53332 12.133 7.64166 12.133 7.77499C12.133 7.84166 12.1247 7.89999 12.108 7.96666C12.083 8.03332 12.058 8.08332 12.0413 8.13332C11.8913 8.40832 11.633 8.76666 11.2663 9.19999C10.8913 9.63332 10.4913 10.075 10.058 10.5167C9.60801 10.9583 9.17467 11.3667 8.73301 11.7417C8.29967 12.1083 7.94134 12.3583 7.65801 12.5083C7.61634 12.525 7.56634 12.55 7.50801 12.575C7.44134 12.6 7.37467 12.6083 7.29967 12.6083C7.15801 12.6083 7.04967 12.5583 6.95801 12.4667L6.32467 11.8417C6.11634 11.6333 5.91634 11.475 5.72467 11.375C5.53301 11.2583 5.34134 11.2 5.13301 11.2C4.97467 11.2 4.80801 11.2333 4.62467 11.3083C4.44134 11.3833 4.24967 11.4917 4.04134 11.6333L1.28301 13.5917C1.06634 13.7417 0.916341 13.9167 0.824674 14.125C0.741341 14.3333 0.691341 14.5417 0.691341 14.775C0.691341 15.075 0.758008 15.3833 0.899674 15.6833C1.04134 15.9833 1.22467 16.2667 1.46634 16.5333C1.87467 16.9833 2.32467 17.3083 2.83301 17.5167C3.33301 17.725 3.87467 17.8333 4.45801 17.8333C5.30801 17.8333 6.21634 17.6333 7.17467 17.225C8.13301 16.8167 9.09134 16.2667 10.0413 15.575C10.9997 14.875 11.908 14.1 12.7747 13.2417C13.633 12.375 14.408 11.4667 15.0997 10.5167C15.783 9.56666 16.333 8.61666 16.733 7.67499C17.133 6.72499 17.333 5.81666 17.333 4.94999C17.333 4.38332 17.233 3.84166 17.033 3.34166C16.833 2.83332 16.5163 2.36666 16.0747 1.94999C15.5413 1.42499 14.958 1.16666 14.3413 1.16666C14.108 1.16666 13.8747 1.21666 13.6663 1.31666C13.4497 1.41666 13.258 1.56666 13.108 1.78332" stroke="#197C82" stroke-miterlimit="10" stroke-linecap="round" stroke-linejoin="round"/>
</svg>
