<svg width="60" height="35" viewBox="0 0 60 35" fill="none" xmlns="http://www.w3.org/2000/svg">
<g filter="url(#filter0_d_796_3113)">
<rect x="3" y="2" width="54" height="25" rx="8" fill="white"/>
<path d="M12.3754 21.4017C12.0727 21.4017 11.7597 21.3861 11.4362 21.3548C11.1127 21.327 10.8014 21.2678 10.5023 21.1774C10.2067 21.087 9.93188 20.9583 9.67797 20.7913C9.42753 20.6278 9.22231 20.4104 9.06231 20.1391C8.72492 19.6452 8.55623 19.0174 8.55623 18.2557C8.55623 18.1722 8.55797 18.087 8.56144 18C8.60666 17.0539 8.90231 15.92 9.4484 14.5983L10.4032 14.9843C9.8571 16.327 9.58405 17.4209 9.58405 18.2661C9.58405 18.8017 9.69362 19.2365 9.91275 19.5704C10.0554 19.7757 10.231 19.9322 10.4397 20.04C10.6519 20.1513 10.871 20.2313 11.0971 20.28C11.3267 20.3287 11.5527 20.3565 11.7754 20.3635C12.0014 20.3704 12.2014 20.3739 12.3754 20.3739C12.4762 20.3739 12.6188 20.3652 12.8032 20.3478C12.9875 20.3339 13.1875 20.3078 13.4032 20.2696C13.6188 20.2313 13.838 20.1791 14.0606 20.113C14.2867 20.0504 14.4901 19.9722 14.671 19.8783C14.8519 19.7843 14.9997 19.673 15.1145 19.5443C15.2327 19.4157 15.2919 19.2661 15.2919 19.0957C15.2919 19.0539 15.2727 19.0035 15.2345 18.9443C15.1962 18.8887 15.1336 18.8278 15.0467 18.7617C14.9632 18.6991 14.8536 18.6313 14.718 18.5583C14.5823 18.4852 14.4154 18.4122 14.2171 18.3391C14.0954 18.2974 13.9736 18.2591 13.8519 18.2243C13.7336 18.1896 13.6223 18.1583 13.518 18.1304C13.4136 18.1026 13.318 18.0783 13.231 18.0574C13.1441 18.04 13.0727 18.0261 13.0171 18.0157L12.9023 17.9948L12.9806 16.9774H17.0971V18H15.751C15.8693 18.0974 15.9649 18.1948 16.038 18.2922C16.1145 18.393 16.1736 18.4904 16.2154 18.5843C16.2571 18.6783 16.2849 18.7687 16.2988 18.8557C16.3127 18.9426 16.3197 19.0226 16.3197 19.0957C16.3162 19.3913 16.2484 19.6539 16.1162 19.8835C15.9841 20.113 15.8101 20.313 15.5945 20.4835C15.3788 20.6539 15.1336 20.7965 14.8588 20.9113C14.5841 21.0296 14.3006 21.1252 14.0084 21.1983C13.7197 21.2713 13.4327 21.3235 13.1475 21.3548C12.8623 21.3861 12.6049 21.4017 12.3754 21.4017ZM22.5024 16.9774V18H22.3563C22.1615 18.007 21.9772 18.0539 21.8033 18.1409C21.6328 18.2313 21.4815 18.3478 21.3494 18.4904C21.2172 18.633 21.1094 18.7948 21.0259 18.9757C20.9459 19.16 20.8989 19.3478 20.885 19.5391C20.8815 19.5739 20.8798 19.607 20.8798 19.6383C20.8798 19.7983 20.9094 19.9652 20.9685 20.1391C21.0276 20.313 21.1389 20.48 21.3024 20.64L20.6502 21.433C20.2815 21.2104 19.9528 20.967 19.6641 20.7026C19.3754 20.4383 19.1215 20.1635 18.9024 19.8783C18.6833 19.593 18.4972 19.3026 18.3441 19.007C18.1911 18.7113 18.0676 18.4191 17.9737 18.1304L17.9267 18H16.8937V16.9774H17.7337C17.7302 16.9322 17.7285 16.8835 17.7285 16.8313C17.7285 16.6678 17.7424 16.4713 17.7702 16.2417C17.8015 16.0087 17.8554 15.7565 17.932 15.4852C18.0085 15.2104 18.1041 14.9409 18.2189 14.6765C18.3372 14.4087 18.4746 14.1704 18.6311 13.9617C18.7911 13.7496 18.9702 13.5774 19.1685 13.4452C19.3667 13.313 19.5841 13.2417 19.8207 13.2313H19.8728C20.0572 13.2313 20.2241 13.2835 20.3737 13.3878C20.5267 13.4922 20.6607 13.6348 20.7754 13.8157C20.8902 13.9965 20.9824 14.2035 21.052 14.4365C21.125 14.6661 21.1754 14.8974 21.2033 15.1304C21.2172 15.2696 21.2241 15.4035 21.2241 15.5322C21.2241 15.6261 21.2172 15.7496 21.2033 15.9026C21.1928 16.0522 21.1563 16.2017 21.0937 16.3513C20.9998 16.5739 20.8815 16.7739 20.7389 16.9513C20.5963 17.1287 20.4346 17.2835 20.2537 17.4157C20.0728 17.5443 19.8763 17.6522 19.6641 17.7391C19.452 17.8226 19.2294 17.8835 18.9963 17.9217C19.038 18.0226 19.092 18.1461 19.158 18.2922C19.2276 18.4383 19.3059 18.5843 19.3928 18.7304C19.4798 18.8765 19.5737 19.0122 19.6746 19.1374C19.7789 19.2661 19.8867 19.3635 19.998 19.4296C19.9946 19.3774 19.9928 19.3252 19.9928 19.273C19.9928 19.1096 20.0172 18.9357 20.0659 18.7513C20.1146 18.5704 20.1946 18.3896 20.3059 18.2087C20.4172 18.0278 20.5511 17.8626 20.7076 17.713C20.8641 17.56 21.0346 17.4296 21.2189 17.3217C21.4033 17.2139 21.5946 17.1304 21.7928 17.0713C21.9946 17.0087 22.1963 16.9774 22.398 16.9774H22.5024ZM19.8259 14.3217C19.7285 14.3322 19.6311 14.3843 19.5337 14.4783C19.4398 14.5687 19.3494 14.687 19.2624 14.833C19.1754 14.9757 19.0972 15.1374 19.0276 15.3183C18.958 15.4991 18.8989 15.6835 18.8502 15.8713C18.805 16.0591 18.7737 16.2435 18.7563 16.4243C18.7494 16.5078 18.7459 16.5878 18.7459 16.6643C18.7459 16.7548 18.7511 16.8383 18.7615 16.9148C18.8172 16.9217 18.8711 16.9252 18.9233 16.9252C19.0902 16.9252 19.2537 16.8887 19.4137 16.8157C19.5772 16.7391 19.7233 16.6243 19.852 16.4713C19.9841 16.3148 20.0867 16.1374 20.1598 15.9391C20.2328 15.7409 20.2694 15.5409 20.2694 15.3391C20.2728 15.1374 20.238 14.9461 20.165 14.7652C20.0954 14.5843 19.9824 14.4365 19.8259 14.3217ZM22.296 16.9774H22.9482C23.1569 16.9774 23.3743 16.9757 23.6004 16.9722C23.8265 16.9652 24.0421 16.9443 24.2473 16.9096C24.4526 16.8713 24.6404 16.8139 24.8108 16.7374C24.9813 16.6574 25.1152 16.5443 25.2126 16.3983C25.3273 16.2209 25.3952 16.0296 25.416 15.8243C25.4195 15.7791 25.4213 15.7339 25.4213 15.6887C25.4213 15.5252 25.3969 15.3496 25.3482 15.1617C25.31 15.0191 25.2143 14.8383 25.0613 14.6191C24.9117 14.3965 24.7256 14.16 24.503 13.9096C24.2804 13.6557 24.0317 13.3965 23.7569 13.1322C23.4821 12.8678 23.2021 12.6209 22.9169 12.3913L23.0369 11.3217L27.3256 9.48522L27.7273 10.4348L23.9917 12.0052C24.1621 12.1513 24.3482 12.3148 24.55 12.4957C24.7517 12.6765 24.9517 12.8765 25.15 13.0957C25.4143 13.3878 25.6317 13.6678 25.8021 13.9357C25.9726 14.2 26.1047 14.4522 26.1987 14.6922C26.2926 14.9322 26.3552 15.1583 26.3865 15.3704C26.4073 15.5096 26.4178 15.6417 26.4178 15.767C26.4178 15.84 26.4108 15.9409 26.3969 16.0696C26.3865 16.1948 26.3534 16.3374 26.2978 16.4974C26.2456 16.6574 26.183 16.8035 26.11 16.9357C25.8004 17.4852 25.2769 17.8278 24.5395 17.9635C24.4178 17.9878 24.2665 18 24.0856 18H22.296V16.9774ZM27.1482 8.78087L22.9534 10.5548L22.99 9.88696L26.903 8.25391L27.1482 8.78087ZM30.8445 10.4504C30.9037 11.1496 30.9506 11.8104 30.9854 12.433C31.0202 13.0557 31.0428 13.647 31.0532 14.207C31.0637 14.7843 31.0689 15.3043 31.0689 15.767C31.0689 16.0452 31.0637 16.4017 31.0532 16.8365C31.0463 17.2678 31.0184 17.6557 30.9698 18L29.9419 17.9426C29.9906 17.4 30.0237 16.8626 30.0411 16.3304C30.0515 16.0348 30.0567 15.7391 30.0567 15.4435C30.0567 15.2104 30.0532 14.9757 30.0463 14.7391C30.0219 13.8243 29.9906 13.0243 29.9524 12.3391C29.9141 11.6539 29.8706 11.0765 29.8219 10.607L30.8445 10.4504ZM28.3611 9.97043C28.3924 9.81391 28.448 9.66435 28.528 9.52174C28.6115 9.37565 28.7124 9.2487 28.8306 9.14087C28.9489 9.02957 29.0793 8.94261 29.2219 8.88C29.3645 8.81391 29.5106 8.78087 29.6602 8.78087C29.8167 8.78087 29.9558 8.8 30.0776 8.83826C30.1993 8.87652 30.3141 8.91826 30.4219 8.96348C30.5158 9.00174 30.608 9.03478 30.6984 9.06261C30.7924 9.09043 30.8932 9.10609 31.0011 9.10957H31.0219C31.0984 9.10957 31.175 9.09043 31.2515 9.05217C31.328 9.01391 31.3993 8.96696 31.4654 8.9113C31.535 8.85217 31.5924 8.79478 31.6376 8.73913C31.6863 8.68348 31.7211 8.64174 31.7419 8.61391L32.3367 9C32.3332 9.00696 32.3158 9.03304 32.2845 9.07826C32.2532 9.12348 32.208 9.17913 32.1489 9.24522C32.0932 9.30783 32.0254 9.37565 31.9454 9.4487C31.8654 9.51826 31.775 9.58261 31.6741 9.64174C31.5767 9.70087 31.4689 9.74957 31.3506 9.78783C31.2428 9.82261 31.128 9.84 31.0063 9.84H30.975C30.8184 9.84 30.6758 9.82087 30.5471 9.78261C30.4184 9.74087 30.2967 9.69913 30.1819 9.65739C30.0706 9.61217 29.9645 9.57391 29.8637 9.54261C29.7976 9.52174 29.7298 9.5113 29.6602 9.5113C29.6254 9.5113 29.5889 9.51478 29.5506 9.52174C29.488 9.5287 29.4289 9.56 29.3732 9.61565C29.3176 9.66783 29.2671 9.73043 29.2219 9.80348C29.1802 9.87304 29.1437 9.94435 29.1124 10.0174C29.0845 10.087 29.0637 10.1426 29.0498 10.1843L28.3611 9.97043ZM36.1914 18.8922C36.1601 18.673 36.1444 18.4557 36.1444 18.24C36.1444 18.1078 36.1548 17.9235 36.1757 17.687C36.1966 17.447 36.2505 17.1652 36.3374 16.8417C36.4279 16.5183 36.5374 16.2122 36.6661 15.9235C36.7983 15.6313 36.9357 15.367 37.0783 15.1304L37.9079 15.7409C37.8627 15.8035 37.8105 15.8939 37.7514 16.0122C37.6922 16.127 37.6314 16.2626 37.5688 16.4191C37.5096 16.5757 37.4522 16.7478 37.3966 16.9357C37.3409 17.12 37.294 17.313 37.2557 17.5148C37.2209 17.7165 37.1983 17.9217 37.1879 18.1304C37.1844 18.1896 37.1827 18.247 37.1827 18.3026C37.1827 18.4557 37.1931 18.6035 37.214 18.7461C37.2279 18.8365 37.254 18.9443 37.2922 19.0696C37.334 19.1948 37.3948 19.3235 37.4748 19.4557C37.5548 19.5913 37.6557 19.7235 37.7774 19.8522C37.8992 19.9809 38.0453 20.0957 38.2157 20.1965C38.3896 20.3009 38.5914 20.3843 38.8209 20.447C39.054 20.513 39.3183 20.5461 39.614 20.5461C39.9827 20.5461 40.3166 20.5113 40.6157 20.4417C40.9148 20.3722 41.1774 20.2696 41.4035 20.1339C41.6296 20.0017 41.8192 19.8383 41.9722 19.6435C42.1253 19.4522 42.2401 19.2348 42.3166 18.9913C42.4105 18.6922 42.4609 18.3913 42.4679 18.0887V18.0261C42.4679 17.7443 42.4453 17.4696 42.4001 17.2017C42.3548 16.9339 42.2905 16.68 42.207 16.44C42.127 16.1965 42.047 15.9861 41.967 15.8087C41.887 15.6278 41.8157 15.487 41.7531 15.3861C41.694 15.2817 41.6627 15.2296 41.6592 15.2296L42.5253 14.6765C42.5357 14.6939 42.5774 14.7652 42.6505 14.8904C42.7235 15.0122 42.8088 15.1774 42.9061 15.3861C43.0974 15.7478 43.2783 16.0348 43.4488 16.247C43.6192 16.4591 43.7809 16.6191 43.934 16.727C44.087 16.8348 44.2314 16.9043 44.367 16.9357C44.5061 16.9635 44.6366 16.9774 44.7583 16.9774H44.8731V18H44.7583C44.2888 18 43.8696 17.8939 43.5009 17.6817C43.5044 17.7617 43.5061 17.8417 43.5061 17.9217C43.5061 18.1061 43.4922 18.313 43.4644 18.5426C43.4401 18.7722 43.3827 19.0261 43.2922 19.3043C43.1601 19.6974 42.974 20.0365 42.734 20.3217C42.4974 20.607 42.2209 20.8417 41.9044 21.0261C41.5879 21.2139 41.2366 21.353 40.8505 21.4435C40.4679 21.5339 40.0627 21.5791 39.6348 21.5791C39.1896 21.5791 38.7722 21.5235 38.3827 21.4122C37.9966 21.3043 37.6522 21.1391 37.3496 20.9165C37.047 20.6974 36.7948 20.4191 36.5931 20.0817C36.3948 19.7443 36.2609 19.3478 36.1914 18.8922ZM40.6992 14.6296L39.8488 15.48L38.9931 14.6243L39.8435 13.7739L40.6992 14.6296ZM44.6554 16.9774H45.6624C45.8641 16.9774 46.0606 16.9739 46.2519 16.967C46.4432 16.9565 46.6206 16.9304 46.7841 16.8887C46.9476 16.847 47.0919 16.7861 47.2172 16.7061C47.3424 16.6226 47.4398 16.5078 47.5093 16.3617C47.5441 16.2887 47.5702 16.1965 47.5876 16.0852C47.598 16.0122 47.6032 15.9339 47.6032 15.8504C47.6032 15.8052 47.5998 15.7374 47.5928 15.647C47.5859 15.553 47.5632 15.4261 47.525 15.2661C47.4867 15.1026 47.4311 14.9322 47.358 14.7548L46.9041 13.6383L47.8328 13.1791C47.8328 13.1826 47.8485 13.2191 47.8798 13.2887C47.9111 13.3548 47.9511 13.4452 47.9998 13.56C48.0519 13.6748 48.1076 13.8087 48.1667 13.9617C48.2259 14.1113 48.2815 14.2713 48.3337 14.4417C48.4902 14.9461 48.5806 15.3913 48.605 15.7774C48.6085 15.833 48.6102 15.8887 48.6102 15.9443C48.6102 16.2609 48.558 16.5391 48.4537 16.7791C48.3493 17.0157 48.2102 17.2122 48.0363 17.3687C47.8659 17.5252 47.6693 17.6504 47.4467 17.7443C47.2241 17.8383 46.9789 17.9043 46.7111 17.9426C46.4467 17.9809 46.1719 18 45.8867 18H44.6554V16.9774ZM46.4711 19.7061L45.6259 20.5513L44.7702 19.7009L45.6154 18.8504L46.4711 19.7061ZM48.6102 19.7113L47.765 20.5617L46.9093 19.7061L47.7545 18.8609L48.6102 19.7113ZM50.9647 9.76174C51.1143 11.1739 51.203 12.44 51.2308 13.56C51.2413 14.1374 51.2465 14.68 51.2465 15.1878C51.2465 15.4939 51.2413 15.9026 51.2308 16.4139C51.2239 16.9252 51.196 17.4696 51.1473 18.047L50.1195 17.9896C50.1752 17.2104 50.2117 16.4974 50.2291 15.8504C50.236 15.5583 50.2395 15.2783 50.2395 15.0104C50.2395 14.687 50.2343 14.3809 50.2239 14.0922C50.1543 12.4052 50.0604 11.0139 49.9421 9.91826L50.9647 9.76174Z" fill="#197C82"/>
<path d="M36.0711 22.4853C36.962 22.4853 37.4081 23.5624 36.7782 24.1924L30.7071 30.2635C30.3166 30.654 29.6834 30.654 29.2929 30.2635L23.2218 24.1924C22.5919 23.5624 23.038 22.4853 23.9289 22.4853L36.0711 22.4853Z" fill="white"/>
</g>
<defs>
<filter id="filter0_d_796_3113" x="0" y="0" width="60" height="35" filterUnits="userSpaceOnUse" color-interpolation-filters="sRGB">
<feFlood flood-opacity="0" result="BackgroundImageFix"/>
<feColorMatrix in="SourceAlpha" type="matrix" values="0 0 0 0 0 0 0 0 0 0 0 0 0 0 0 0 0 0 127 0" result="hardAlpha"/>
<feOffset dy="1"/>
<feGaussianBlur stdDeviation="1.5"/>
<feColorMatrix type="matrix" values="0 0 0 0 0.0627451 0 0 0 0 0.0941176 0 0 0 0 0.156863 0 0 0 0.1 0"/>
<feBlend mode="normal" in2="BackgroundImageFix" result="effect1_dropShadow_796_3113"/>
<feBlend mode="normal" in="SourceGraphic" in2="effect1_dropShadow_796_3113" result="shape"/>
</filter>
</defs>
</svg>
