<svg width="18" height="19" viewBox="0 0 18 19" fill="none" xmlns="http://www.w3.org/2000/svg">
<path d="M1.07056 7.42943C1.79532 4.72459 2.1577 3.37216 2.96092 2.4801C3.66746 1.69541 4.60427 1.15455 5.63709 0.935013C6.81125 0.685437 8.16367 1.04782 10.8685 1.77258C13.5734 2.49734 14.9258 2.85972 15.8179 3.66294C16.6025 4.36947 17.1434 5.30628 17.3629 6.33911C17.6125 7.51327 17.2501 8.86569 16.5254 11.5705C15.8006 14.2754 15.4382 15.6278 14.635 16.5199C13.9285 17.3046 12.9917 17.8454 11.9588 18.065C10.7847 18.3145 9.43226 17.9522 6.72742 17.2274C4.02257 16.5026 2.67015 16.1402 1.77808 15.337C0.993396 14.6305 0.452528 13.6937 0.232995 12.6609C-0.0165809 11.4867 0.3458 10.1343 1.07056 7.42943Z" fill="#197C82"/>
</svg>
