<svg width="30" height="30" viewBox="0 0 30 30" fill="none" xmlns="http://www.w3.org/2000/svg">
<path d="M3.62348 9.65926C4.84356 5.10584 5.45361 2.82913 7.2472 1.7936C9.0408 0.758063 11.3175 1.36811 15.8709 2.58819L19.7346 3.62347C24.288 4.84355 26.5648 5.45359 27.6003 7.24719C28.6358 9.04079 28.0258 11.3175 26.8057 15.8709L25.7704 19.7346C24.5503 24.288 23.9403 26.5647 22.1467 27.6003C20.3531 28.6358 18.0764 28.0258 13.523 26.8057L9.65927 25.7704C5.10585 24.5503 2.82914 23.9403 1.79361 22.1467C0.758076 20.3531 1.36812 18.0764 2.5882 13.523L3.62348 9.65926Z" fill="#E6FDFF"/>
<path d="M6.36371 23.3333H23.0304" stroke="#197C82" stroke-miterlimit="10" stroke-linecap="round" stroke-linejoin="round"/>
<path d="M20.5306 10.8333L20.5056 8.33334H16.8389" stroke="#197C82" stroke-miterlimit="10" stroke-linecap="round" stroke-linejoin="round"/>
<path d="M7.19702 13.3083C7.19702 12.8 7.43869 12.3167 7.83869 12L13.672 7.45837C14.272 6.9917 15.1137 6.9917 15.722 7.45837L21.5554 11.9917C21.9637 12.3084 22.197 12.7917 22.197 13.3083V23.3333" stroke="#197C82" stroke-miterlimit="10" stroke-linecap="round" stroke-linejoin="round"/>
<path d="M7.15472 23.3333L7.17972 16.6917" stroke="#197C82" stroke-miterlimit="10" stroke-linecap="round" stroke-linejoin="round"/>
<path d="M15.5304 19.1667H13.8637C13.172 19.1667 12.6137 19.725 12.6137 20.4167V23.3333H16.7804V20.4167C16.7804 19.725 16.222 19.1667 15.5304 19.1667Z" stroke="#197C82" stroke-miterlimit="10" stroke-linejoin="round"/>
<path d="M12.6137 16.4583H10.947C10.4887 16.4583 10.1137 16.0833 10.1137 15.625V14.375C10.1137 13.9167 10.4887 13.5417 10.947 13.5417H12.6137C13.072 13.5417 13.447 13.9167 13.447 14.375V15.625C13.447 16.0833 13.072 16.4583 12.6137 16.4583Z" stroke="#197C82" stroke-miterlimit="10" stroke-linejoin="round"/>
<path d="M18.447 16.4583H16.7804C16.322 16.4583 15.947 16.0833 15.947 15.625V14.375C15.947 13.9167 16.322 13.5417 16.7804 13.5417H18.447C18.9054 13.5417 19.2804 13.9167 19.2804 14.375V15.625C19.2804 16.0833 18.9054 16.4583 18.447 16.4583Z" stroke="#197C82" stroke-miterlimit="10" stroke-linejoin="round"/>
</svg>
