<svg width="30" height="30" viewBox="0 0 30 30" fill="none" xmlns="http://www.w3.org/2000/svg">
<path d="M3.62348 9.96224C4.84356 5.40882 5.45361 3.13211 7.2472 2.09658C9.0408 1.06104 11.3175 1.67108 15.8709 2.89117L19.7346 3.92645C24.288 5.14653 26.5648 5.75657 27.6003 7.55017C28.6358 9.34377 28.0258 11.6205 26.8057 16.1739L25.7704 20.0376C24.5503 24.591 23.9403 26.8677 22.1467 27.9033C20.3531 28.9388 18.0764 28.3287 13.523 27.1087L9.65927 26.0734C5.10585 24.8533 2.82914 24.2433 1.79361 22.4497C0.758076 20.6561 1.36812 18.3794 2.5882 13.8259L3.62348 9.96224Z" fill="#E6FDFF"/>
<path d="M6.36353 12.0832C6.36353 9.1665 8.03019 7.9165 10.5302 7.9165H18.8635C21.3635 7.9165 23.0302 9.1665 23.0302 12.0832V17.9165C23.0302 20.8332 21.3635 22.0832 18.8635 22.0832H10.5302C8.03019 22.0832 6.36353 20.8332 6.36353 17.9165V15.4415" stroke="#197C82" stroke-miterlimit="10" stroke-linecap="round" stroke-linejoin="round"/>
<path d="M17.1969 14.9999C17.1969 13.6165 16.0802 12.4999 14.6969 12.4999C13.3136 12.4999 12.1969 13.6165 12.1969 14.9999C12.1969 16.3832 13.3136 17.4999 14.6969 17.4999" stroke="#197C82" stroke-miterlimit="10" stroke-linecap="round" stroke-linejoin="round"/>
<path d="M11.7802 9.99988H10.5302C9.38023 9.99988 8.4469 10.9332 8.4469 12.0832V13.3332" stroke="#197C82" stroke-miterlimit="10" stroke-linecap="round" stroke-linejoin="round"/>
<path d="M17.6135 9.99988H18.8635C20.0135 9.99988 20.9469 10.9332 20.9469 12.0832V13.3332" stroke="#197C82" stroke-miterlimit="10" stroke-linecap="round" stroke-linejoin="round"/>
<path d="M11.7802 19.9998H10.5302C9.38023 19.9998 8.4469 19.0665 8.4469 17.9165V16.6665" stroke="#197C82" stroke-miterlimit="10" stroke-linecap="round" stroke-linejoin="round"/>
<path d="M17.6135 19.9998H18.8635C20.0135 19.9998 20.9469 19.0665 20.9469 17.9165V16.6665" stroke="#197C82" stroke-miterlimit="10" stroke-linecap="round" stroke-linejoin="round"/>
</svg>
