<svg width="32" height="32" viewBox="0 0 32 32" fill="none" xmlns="http://www.w3.org/2000/svg">
<path d="M0 10C0 5.28595 0 2.92893 1.46447 1.46447C2.92893 0 5.28595 0 10 0H22C26.714 0 29.0711 0 30.5355 1.46447C32 2.92893 32 5.28595 32 10V22C32 26.714 32 29.0711 30.5355 30.5355C29.0711 32 26.714 32 22 32H10C5.28595 32 2.92893 32 1.46447 30.5355C0 29.0711 0 26.714 0 22V10Z" fill="#F1F1F1"/>
<path d="M6 16.9C6 13.4 7.4 12 10.9 12H15.1C18.6 12 20 13.4 20 16.9V21.1C20 24.6 18.6 26 15.1 26H10.9C7.4 26 6 24.6 6 21.1" stroke="#808487" stroke-width="1.5" stroke-linecap="round" stroke-linejoin="round"/>
<path d="M26 15.1C26 18.6 24.6 20 21.1 20H20V16.9C20 13.4 18.6 12 15.1 12H12V10.9C12 7.4 13.4 6 16.9 6H21.1C24.6 6 26 7.4 26 10.9" stroke="#808487" stroke-width="1.5" stroke-linecap="round" stroke-linejoin="round"/>
</svg>
