<svg width="32" height="32" viewBox="0 0 32 32" fill="none" xmlns="http://www.w3.org/2000/svg">
<path d="M0 10C0 5.28595 0 2.92893 1.46447 1.46447C2.92893 0 5.28595 0 10 0H22C26.714 0 29.0711 0 30.5355 1.46447C32 2.92893 32 5.28595 32 10V22C32 26.714 32 29.0711 30.5355 30.5355C29.0711 32 26.714 32 22 32H10C5.28595 32 2.92893 32 1.46447 30.5355C0 29.0711 0 26.714 0 22V10Z" fill="#F1F1F1"/>
<path d="M13.25 13.05C15.03 13.7 16.97 13.7 18.75 13.05" stroke="#808487" stroke-width="1.5" stroke-linecap="round" stroke-linejoin="round"/>
<path d="M7.32031 14V23.95C7.32031 25.75 8.61031 26.51 10.1903 25.64L15.0703 22.93C15.5903 22.64 16.4303 22.64 16.9403 22.93L21.8203 25.64C23.4003 26.52 24.6903 25.76 24.6903 23.95V9.86C24.6903 7.74 22.9503 6 20.8303 6H11.1803C9.05031 6 7.32031 7.74 7.32031 9.86" stroke="#808487" stroke-width="1.5" stroke-linecap="round" stroke-linejoin="round"/>
</svg>
