<svg width="30" height="30" viewBox="0 0 30 30" fill="none" xmlns="http://www.w3.org/2000/svg">
<path d="M4.22956 10.0532C5.44964 5.49976 6.05969 3.22305 7.85328 2.18752C9.64688 1.15198 11.9236 1.76203 16.477 2.98211L20.3407 4.01739C24.8941 5.23747 27.1708 5.84751 28.2064 7.64111C29.2419 9.43471 28.6319 11.7114 27.4118 16.2648L26.3765 20.1285C25.1564 24.682 24.5464 26.9587 22.7528 27.9942C20.9592 29.0297 18.6825 28.4197 14.1291 27.1996L10.2654 26.1643C5.71193 24.9442 3.43522 24.3342 2.39969 22.5406C1.36416 20.747 1.9742 18.4703 3.19428 13.9169L4.22956 10.0532Z" fill="#E6FDFF"/>
<path d="M22.3862 16.3157L21.1362 20.0741C20.0945 23.2074 18.4279 24.0407 15.2945 22.9991L11.5362 21.7491C9.64456 21.1241 8.59456 20.2574 8.29456 18.9907C8.92789 19.4407 9.79456 19.7407 10.9196 19.9157L14.8279 20.5324C18.0862 21.0407 19.5945 19.9407 20.1112 16.6824L20.7195 12.7741C20.8195 12.1324 20.8612 11.5574 20.8279 11.0491C22.8195 12.1074 23.2529 13.7074 22.3862 16.3157Z" stroke="#197C82" stroke-linecap="round" stroke-linejoin="round"/>
<path d="M16.8779 7.49075C19.4946 7.89909 20.7196 8.96575 20.8279 11.0491C20.8613 11.5574 20.8196 12.1324 20.7196 12.7741L20.1113 16.6824C19.5946 19.9408 18.0863 21.0408 14.8279 20.5324L10.9196 19.9158C9.7946 19.7408 8.92793 19.4408 8.2946 18.9908C7.08626 18.1491 6.73626 16.7658 7.0696 14.6324L7.68626 10.7241C8.20293 7.46575 9.71126 6.36575 12.9696 6.87409" stroke="#197C82" stroke-linecap="round" stroke-linejoin="round"/>
<path d="M12.1696 12.5741C12.9704 12.5741 13.6196 11.9249 13.6196 11.1241C13.6196 10.3233 12.9704 9.67413 12.1696 9.67413C11.3688 9.67413 10.7196 10.3233 10.7196 11.1241C10.7196 11.9249 11.3688 12.5741 12.1696 12.5741Z" stroke="#197C82" stroke-linecap="round" stroke-linejoin="round"/>
</svg>
