<svg width="32" height="32" viewBox="0 0 32 32" fill="none" xmlns="http://www.w3.org/2000/svg">
<path d="M16 10.8398V17.2799" stroke="#F15959" stroke-width="1.5" stroke-linecap="round" stroke-linejoin="round"/>
<path d="M5.65444 8.26673C5.65444 6.8534 6.81444 5.6934 8.22777 5.6934H10.5344C11.0678 5.6934 11.8144 5.4134 12.2144 5.08006L14.3212 3.28006C15.2545 2.4934 16.7612 2.4934 17.6678 3.28006L19.7745 5.08006C20.1745 5.4134 20.9345 5.6934 21.4678 5.6934H23.7345C25.1478 5.6934 26.3078 6.8534 26.3078 8.26673V10.5334C26.3078 11.0667 26.5878 11.8134 26.9212 12.2134L28.7212 14.3201C29.5078 15.2534 29.5078 16.7601 28.7212 17.6668L26.9212 19.7734C26.5878 20.1734 26.3078 20.9201 26.3078 21.4534V23.7201C26.3078 25.1334 25.1478 26.2934 23.7345 26.2934H21.4678C20.9345 26.2934 20.1878 26.5734 19.7878 26.9068L17.6812 28.7068C16.7478 29.4934 15.2412 29.4934 14.3345 28.7068L12.2278 26.9068C11.8278 26.5734 11.0678 26.2934 10.5478 26.2934H8.22777C6.81444 26.2934 5.65444 25.1334 5.65444 23.7201V21.4401C5.65444 20.9201 5.38777 20.1601 5.05444 19.7734L3.25444 17.6534C2.48111 16.7334 2.48111 15.2401 3.25444 14.3201L4.00111 13.4401" stroke="#F15959" stroke-width="1.5" stroke-linecap="round" stroke-linejoin="round"/>
<path d="M15.9922 21.3334H16.0053" stroke="#F15959" stroke-width="2" stroke-linecap="round" stroke-linejoin="round"/>
</svg>
